<svg xmlns="http://www.w3.org/2000/svg" version="1.1" xmlns:xlink="http://www.w3.org/1999/xlink" xmlns:svgjs="http://svgjs.dev/svgjs" width="1440" height="560" preserveAspectRatio="none" viewBox="0 0 1440 560"><g mask="url(&quot;#SvgjsMask1019&quot;)" fill="none"><rect width="1440" height="560" x="0" y="0" fill="rgba(83, 117, 208, 1)"></rect><path d="M1560 560L0 560 L0 328.99Q50.99 259.98, 120 310.96Q206.39 277.35, 240 363.73Q282.45 286.18, 360 328.63Q374.11 270.74, 432 284.85Q502.51 235.36, 552 305.87Q642.44 276.31, 672 366.76Q683.52 306.28, 744 317.8Q815.44 269.25, 864 340.69Q933.43 290.13, 984 359.56Q999.95 303.5, 1056 319.45Q1121.2 264.65, 1176 329.86Q1228.54 310.4, 1248 362.94Q1276.62 319.56, 1320 348.18Q1366.59 274.77, 1440 321.36Q1487.97 249.33, 1560 297.29z" fill="#182f5d"></path><path d="M1536 560L0 560 L0 416.01Q31.75 375.75, 72 407.5Q81.02 344.52, 144 353.55Q215.83 305.38, 264 377.21Q317.19 310.4, 384 363.59Q462.12 321.71, 504 399.83Q563.25 387.08, 576 446.34Q580.9 379.24, 648 384.14Q717.13 333.27, 768 402.4Q782.17 344.57, 840 358.74Q911.06 309.8, 960 380.86Q1022.5 371.37, 1032 433.87Q1035.96 365.84, 1104 369.8Q1156.22 302.02, 1224 354.25Q1275.81 334.06, 1296 385.86Q1363.22 333.08, 1416 400.3Q1494.11 358.4, 1536 436.51z" fill="#25467d"></path><path d="M1488 560L0 560 L0 440.61Q58.48 379.09, 120 437.57Q214.52 412.09, 240 506.6Q257.91 452.51, 312 470.42Q354.59 393.01, 432 435.6Q477.36 408.96, 504 454.31Q582.7 413.01, 624 491.71Q653.66 401.37, 744 431.03Q793.32 408.35, 816 457.66Q868.34 390, 936 442.33Q992.92 427.25, 1008 484.18Q1054.45 410.63, 1128 457.09Q1173.16 382.25, 1248 427.42Q1313.88 373.31, 1368 439.19Q1466.16 417.35, 1488 515.51z" fill="#356cb1"></path><path d="M1464 560L0 560 L0 514.94Q43.4 486.34, 72 529.74Q119.5 457.25, 192 504.75Q289.83 482.58, 312 580.4Q337.36 533.75, 384 559.11Q428.09 483.2, 504 527.3Q547 450.3, 624 493.3Q683.86 481.16, 696 541.02Q720.76 493.78, 768 518.54Q849.19 479.73, 888 560.92Q936.23 489.14, 1008 537.37Q1033.53 490.9, 1080 516.43Q1134.02 498.45, 1152 552.47Q1178.41 506.88, 1224 533.29Q1310.54 499.83, 1344 586.36Q1372.4 494.76, 1464 523.16z" fill="rgba(118, 155, 197, 1)"></path></g><defs><mask id="SvgjsMask1019"><rect width="1440" height="560" fill="#ffffff"></rect></mask></defs></svg>